<?xml version="1.0" standalone="no"?>
<!DOCTYPE svg PUBLIC "-//W3C//DTD SVG 20010904//EN"
 "http://www.w3.org/TR/2001/REC-SVG-20010904/DTD/svg10.dtd">
<svg version="1.0" xmlns="http://www.w3.org/2000/svg"
 width="250.000000pt" height="250.000000pt" viewBox="0 0 250.000000 250.000000"
 preserveAspectRatio="xMidYMid meet">
<metadata>
Created by potrace 1.14, written by Peter Selinger 2001-2017
</metadata>
<g transform="translate(0.000000,250.000000) scale(0.100000,-0.100000)"
fill="#000000" stroke="none">
<path d="M1120 1961 c-30 -16 -100 -50 -155 -76 -55 -26 -176 -85 -270 -130
-93 -46 -187 -90 -207 -99 l-38 -15 0 -391 0 -391 37 -15 c21 -9 115 -53 208
-99 334 -163 486 -235 495 -235 6 0 10 132 10 345 l0 345 50 0 50 0 2 -245 3
-245 53 25 52 24 0 530 0 529 23 -7 c21 -6 205 -94 401 -191 l91 -45 0 -325 0
-325 -90 -44 c-122 -60 -374 -180 -462 -222 l-73 -33 0 -58 c0 -32 4 -58 9
-58 4 0 32 13 62 29 30 15 66 31 82 35 15 3 27 11 27 16 0 6 6 10 14 10 7 0
62 24 122 54 123 61 327 159 392 187 l42 18 0 391 0 390 -22 9 c-33 13 -327
154 -431 206 -49 25 -95 45 -103 45 -8 0 -14 4 -14 10 0 5 -12 13 -27 16 -16
4 -52 20 -82 35 -30 16 -58 29 -62 29 -5 0 -9 -155 -9 -345 l0 -345 -50 0 -50
0 0 244 0 245 -27 -9 c-16 -4 -43 -16 -60 -25 l-33 -16 0 -525 c0 -408 -3
-524 -12 -524 -7 0 -53 20 -103 45 -49 24 -159 77 -242 117 l-153 73 0 325 0
325 153 73 c83 40 193 92 242 116 50 24 122 59 162 78 l72 33 0 58 c1 67 -2
68 -79 28z"/>
<path d="M915 1657 c-22 -12 -43 -26 -46 -30 -3 -5 -10 -9 -15 -9 -5 0 -20 -5
-34 -11 -14 -6 -28 -10 -32 -9 -5 1 -8 -3 -8 -9 0 -5 -4 -7 -10 -4 -5 3 -10 1
-10 -5 0 -6 -4 -8 -10 -5 -5 3 -10 1 -10 -4 0 -6 -3 -10 -7 -9 -5 1 -23 -4
-40 -12 l-33 -15 0 -285 0 -285 33 -15 c17 -8 35 -13 40 -12 4 1 7 -2 7 -6 0
-5 7 -9 15 -9 16 0 17 9 17 120 0 74 5 78 56 47 17 -11 32 -16 32 -12 0 4 4 0
9 -8 5 -8 8 -57 7 -108 -1 -92 4 -107 34 -114 8 -2 21 -9 28 -16 7 -6 22 -12
31 -12 17 0 18 12 17 152 l-1 152 -65 34 c-36 18 -69 38 -75 44 -7 8 -6 9 3 4
6 -4 12 -2 12 4 0 6 5 8 10 5 6 -3 10 -1 10 5 0 6 5 8 10 5 6 -3 10 -1 10 6 0
7 3 9 6 6 4 -4 19 2 34 13 15 11 30 17 33 14 12 -13 16 47 14 226 -2 208 -2
207 -72 167z m-39 -236 c-1 -50 -4 -91 -6 -93 -90 -58 -97 -54 -96 53 1 77 4
93 20 104 10 8 23 12 27 9 5 -3 9 -1 9 5 0 10 30 20 41 14 4 -1 6 -43 5 -92z"/>
<path d="M1510 1251 c0 -424 0 -430 20 -428 11 1 20 5 20 10 0 4 5 5 10 2 6
-3 10 -1 10 5 0 6 4 9 9 5 15 -9 41 24 42 53 0 15 0 71 -1 125 l-1 98 50 -28
51 -27 0 -74 c0 -83 0 -82 83 -41 l37 19 0 78 0 77 -70 32 c-44 20 -70 37 -70
47 0 9 8 16 18 16 9 0 40 13 67 28 l50 27 3 128 3 128 -106 49 c-57 28 -107
50 -111 50 -3 0 -12 7 -21 15 -8 8 -19 13 -24 10 -5 -4 -9 -1 -9 5 0 6 -4 8
-10 5 -5 -3 -10 -1 -10 4 0 6 -9 11 -20 11 -20 0 -20 -7 -20 -429z m151 252
c8 -6 24 -14 37 -17 20 -7 22 -13 22 -82 l0 -74 -37 -18 c-21 -9 -41 -21 -44
-26 -13 -18 -18 15 -18 122 0 113 4 124 40 95z"/>
</g>
</svg>
